<svg width="1000" height="684" viewBox="0 0 1000 684" fill="none" xmlns="http://www.w3.org/2000/svg">
<path d="M32 555.5C32 553.567 33.567 552 35.5 552C37.433 552 39 553.567 39 555.5V590.5C39 592.433 37.433 594 35.5 594C33.567 594 32 592.433 32 590.5V555.5Z" fill="#D9D9D9"/>
<path d="M53 569.5C54.933 569.5 56.5 571.067 56.5 573C56.5 574.933 54.933 576.5 53 576.5L18 576.5C16.067 576.5 14.5 574.933 14.5 573C14.5 571.067 16.067 569.5 18 569.5L53 569.5Z" fill="#D9D9D9"/>
<rect x="56" y="618.5" width="7" height="42" rx="3.5" transform="rotate(90 56 618.5)" fill="#D9D9D9"/>
</svg>
