<svg width="1000" height="684" viewBox="0 0 1000 684" fill="none" xmlns="http://www.w3.org/2000/svg">
<path d="M411.695 514C406.901 514 403 517.892 403 522.676C403 527.281 410.889 538.039 411.225 538.495L411.539 538.921C411.575 538.971 411.634 539 411.695 539C411.758 539 411.816 538.971 411.853 538.921L412.166 538.495C412.502 538.039 420.391 527.281 420.391 522.676C420.391 517.892 416.49 514 411.695 514ZM411.695 519.568C413.413 519.568 414.81 520.962 414.81 522.676C414.81 524.389 413.413 525.784 411.695 525.784C409.978 525.784 408.58 524.389 408.58 522.676C408.58 520.962 409.978 519.568 411.695 519.568Z" fill="black"/>
</svg>
