<svg width="1000" height="684" viewBox="0 0 1000 684" fill="none" xmlns="http://www.w3.org/2000/svg">
<path d="M298.695 360C293.901 360 290 363.892 290 368.676C290 373.281 297.889 384.039 298.225 384.495L298.539 384.921C298.575 384.971 298.634 385 298.695 385C298.758 385 298.816 384.971 298.853 384.921L299.166 384.495C299.502 384.039 307.391 373.281 307.391 368.676C307.391 363.892 303.49 360 298.695 360ZM298.695 365.568C300.413 365.568 301.81 366.962 301.81 368.676C301.81 370.389 300.413 371.784 298.695 371.784C296.978 371.784 295.58 370.389 295.58 368.676C295.58 366.962 296.978 365.568 298.695 365.568Z" fill="black"/>
</svg>
