<svg width="1000" height="684" viewBox="0 0 1000 684" fill="none" xmlns="http://www.w3.org/2000/svg">
<path d="M423.453 387.48C419.343 389.95 418.005 395.295 420.47 399.396C422.842 403.342 435.146 408.499 435.669 408.716L436.157 408.92C436.214 408.944 436.279 408.939 436.332 408.907C436.385 408.875 436.42 408.82 436.426 408.758L436.475 408.232C436.528 407.668 437.748 394.383 435.376 390.436C432.911 386.336 427.562 385.01 423.453 387.48ZM426.321 392.252C427.794 391.367 429.709 391.842 430.592 393.311C431.475 394.78 430.996 396.695 429.523 397.58C428.052 398.464 426.135 397.989 425.253 396.521C424.37 395.052 424.85 393.137 426.321 392.252Z" fill="black"/>
</svg>
