<svg width="1000" height="684" viewBox="0 0 1000 684" fill="none" xmlns="http://www.w3.org/2000/svg">
<path d="M454.695 378C449.901 378 446 381.892 446 386.676C446 391.281 453.889 402.039 454.225 402.495L454.539 402.921C454.575 402.971 454.634 403 454.695 403C454.758 403 454.816 402.971 454.853 402.921L455.166 402.495C455.502 402.039 463.391 391.281 463.391 386.676C463.391 381.892 459.49 378 454.695 378ZM454.695 383.568C456.413 383.568 457.81 384.962 457.81 386.676C457.81 388.389 456.413 389.784 454.695 389.784C452.978 389.784 451.58 388.389 451.58 386.676C451.58 384.962 452.978 383.568 454.695 383.568Z" fill="black"/>
</svg>
