<svg width="1000" height="684" viewBox="0 0 1000 684" fill="none" xmlns="http://www.w3.org/2000/svg">
<path d="M283.023 500.353C287.447 498.504 292.547 500.591 294.392 505.005C296.168 509.254 293.037 522.222 292.903 522.772L292.778 523.286C292.763 523.346 292.721 523.396 292.664 523.42C292.606 523.444 292.542 523.439 292.488 523.407L292.035 523.135C291.549 522.844 280.121 515.96 278.346 511.711C276.501 507.298 278.6 502.202 283.023 500.353ZM285.171 505.491C283.586 506.153 282.834 507.978 283.495 509.559C284.156 511.14 285.983 511.888 287.568 511.226C289.152 510.563 289.904 508.738 289.243 507.157C288.582 505.576 286.755 504.829 285.171 505.491Z" fill="black"/>
</svg>
