<svg width="1000" height="684" viewBox="0 0 1000 684" fill="none" xmlns="http://www.w3.org/2000/svg">
<path d="M275.179 508.693C277.448 504.469 282.723 502.875 286.937 505.139C290.994 507.318 296.738 519.36 296.98 519.871L297.206 520.349C297.233 520.405 297.231 520.47 297.202 520.524C297.173 520.579 297.12 520.616 297.058 520.625L296.535 520.7C295.974 520.78 282.763 522.638 278.707 520.459C274.493 518.195 272.91 512.916 275.179 508.693ZM280.085 511.328C279.272 512.841 279.838 514.731 281.348 515.543C282.857 516.353 284.747 515.783 285.56 514.269C286.372 512.757 285.805 510.865 284.296 510.055C282.787 509.244 280.897 509.815 280.085 511.328Z" fill="black"/>
</svg>
