<svg width="1000" height="684" viewBox="0 0 1000 684" fill="none" xmlns="http://www.w3.org/2000/svg">
<path d="M570.267 450.696C565.708 452.183 563.207 457.093 564.69 461.641C566.118 466.019 576.954 473.801 577.415 474.13L577.845 474.437C577.895 474.474 577.96 474.483 578.018 474.464C578.078 474.445 578.124 474.399 578.143 474.34L578.309 473.838C578.487 473.301 582.652 460.626 581.224 456.249C579.741 451.7 574.825 449.21 570.267 450.696ZM571.993 455.99C573.627 455.458 575.387 456.35 575.918 457.979C576.449 459.608 575.554 461.367 573.92 461.899C572.288 462.432 570.527 461.539 569.995 459.911C569.464 458.281 570.361 456.523 571.993 455.99Z" fill="black"/>
</svg>
