<svg width="1000" height="684" viewBox="0 0 1000 684" fill="none" xmlns="http://www.w3.org/2000/svg">
<path d="M437.695 384C432.901 384 429 387.892 429 392.676C429 397.281 436.889 408.039 437.225 408.495L437.539 408.921C437.575 408.971 437.634 409 437.695 409C437.758 409 437.816 408.971 437.853 408.921L438.166 408.495C438.502 408.039 446.391 397.281 446.391 392.676C446.391 387.892 442.49 384 437.695 384ZM437.695 389.568C439.413 389.568 440.81 390.962 440.81 392.676C440.81 394.389 439.413 395.784 437.695 395.784C435.978 395.784 434.58 394.389 434.58 392.676C434.58 390.962 435.978 389.568 437.695 389.568Z" fill="black"/>
</svg>
