<svg width="1000" height="684" viewBox="0 0 1000 684" fill="none" xmlns="http://www.w3.org/2000/svg">
<path d="M294.695 498C289.901 498 286 501.892 286 506.676C286 511.281 293.889 522.039 294.225 522.495L294.539 522.921C294.575 522.971 294.634 523 294.695 523C294.758 523 294.816 522.971 294.853 522.921L295.166 522.495C295.502 522.039 303.391 511.281 303.391 506.676C303.391 501.892 299.49 498 294.695 498ZM294.695 503.568C296.413 503.568 297.81 504.962 297.81 506.676C297.81 508.389 296.413 509.784 294.695 509.784C292.978 509.784 291.58 508.389 291.58 506.676C291.58 504.962 292.978 503.568 294.695 503.568Z" fill="black"/>
</svg>
