<svg width="1000" height="684" viewBox="0 0 1000 684" fill="none" xmlns="http://www.w3.org/2000/svg">
<path d="M457.695 379C452.901 379 449 382.892 449 387.676C449 392.281 456.889 403.039 457.225 403.495L457.539 403.921C457.575 403.971 457.634 404 457.695 404C457.758 404 457.816 403.971 457.853 403.921L458.166 403.495C458.502 403.039 466.391 392.281 466.391 387.676C466.391 382.892 462.49 379 457.695 379ZM457.695 384.568C459.413 384.568 460.81 385.962 460.81 387.676C460.81 389.389 459.413 390.784 457.695 390.784C455.978 390.784 454.58 389.389 454.58 387.676C454.58 385.962 455.978 384.568 457.695 384.568Z" fill="black"/>
</svg>
