<svg width="1000" height="684" viewBox="0 0 1000 684" fill="none" xmlns="http://www.w3.org/2000/svg">
<path d="M291.695 509C286.901 509 283 512.892 283 517.676C283 522.281 290.889 533.039 291.225 533.495L291.539 533.921C291.575 533.971 291.634 534 291.695 534C291.758 534 291.816 533.971 291.853 533.921L292.166 533.495C292.502 533.039 300.391 522.281 300.391 517.676C300.391 512.892 296.49 509 291.695 509ZM291.695 514.568C293.413 514.568 294.81 515.962 294.81 517.676C294.81 519.389 293.413 520.784 291.695 520.784C289.978 520.784 288.58 519.389 288.58 517.676C288.58 515.962 289.978 514.568 291.695 514.568Z" fill="black"/>
</svg>
