<svg width="1000" height="684" viewBox="0 0 1000 684" fill="none" xmlns="http://www.w3.org/2000/svg">
<path d="M299.395 498.116C294.645 497.464 290.252 500.79 289.601 505.529C288.975 510.091 295.327 521.823 295.598 522.32L295.851 522.784C295.88 522.838 295.934 522.875 295.995 522.884C296.057 522.892 296.118 522.871 296.162 522.827L296.53 522.448C296.925 522.042 306.204 512.456 306.831 507.894C307.481 503.155 304.146 498.768 299.395 498.116ZM298.638 503.633C300.34 503.866 301.534 505.437 301.301 507.135C301.068 508.832 299.495 510.024 297.793 509.79C296.092 509.557 294.896 507.985 295.129 506.288C295.363 504.59 296.937 503.399 298.638 503.633Z" fill="black"/>
</svg>
