<svg width="1000" height="684" viewBox="0 0 1000 684" fill="none" xmlns="http://www.w3.org/2000/svg">
<path d="M307.663 500.353C303.239 498.504 298.139 500.591 296.295 505.005C294.519 509.254 297.65 522.222 297.784 522.772L297.909 523.286C297.924 523.346 297.966 523.396 298.023 523.42C298.08 523.444 298.145 523.439 298.199 523.407L298.652 523.135C299.138 522.844 310.565 515.96 312.341 511.711C314.186 507.298 312.087 502.202 307.663 500.353ZM305.516 505.491C307.101 506.153 307.852 507.978 307.191 509.559C306.531 511.14 304.704 511.888 303.119 511.226C301.535 510.563 300.783 508.738 301.444 507.157C302.104 505.576 303.932 504.829 305.516 505.491Z" fill="black"/>
</svg>
