<svg width="1000" height="684" viewBox="0 0 1000 684" fill="none" xmlns="http://www.w3.org/2000/svg">
<path d="M580.695 449C575.901 449 572 452.892 572 457.676C572 462.281 579.889 473.039 580.225 473.495L580.539 473.921C580.575 473.971 580.634 474 580.695 474C580.758 474 580.816 473.971 580.853 473.921L581.166 473.495C581.502 473.039 589.391 462.281 589.391 457.676C589.391 452.892 585.49 449 580.695 449ZM580.695 454.568C582.413 454.568 583.81 455.962 583.81 457.676C583.81 459.389 582.413 460.784 580.695 460.784C578.978 460.784 577.58 459.389 577.58 457.676C577.58 455.962 578.978 454.568 580.695 454.568Z" fill="black"/>
</svg>
