<svg width="1000" height="684" viewBox="0 0 1000 684" fill="none" xmlns="http://www.w3.org/2000/svg">
<path d="M303.909 510.453C299.508 508.549 294.383 510.572 292.483 514.963C290.654 519.189 293.622 532.196 293.749 532.747L293.868 533.262C293.882 533.323 293.924 533.373 293.98 533.397C294.037 533.422 294.102 533.418 294.156 533.387L294.613 533.121C295.102 532.836 306.615 526.095 308.444 521.869C310.344 517.479 308.309 512.357 303.909 510.453ZM301.697 515.564C303.274 516.246 304.002 518.08 303.322 519.653C302.641 521.225 300.805 521.95 299.229 521.268C297.653 520.586 296.924 518.751 297.604 517.179C298.285 515.606 300.121 514.882 301.697 515.564Z" fill="black"/>
</svg>
