<svg width="1000" height="684" viewBox="0 0 1000 684" fill="none" xmlns="http://www.w3.org/2000/svg">
<path d="M428.695 434C423.901 434 420 437.892 420 442.676C420 447.281 427.889 458.039 428.225 458.495L428.539 458.921C428.575 458.971 428.634 459 428.695 459C428.758 459 428.816 458.971 428.853 458.921L429.166 458.495C429.502 458.039 437.391 447.281 437.391 442.676C437.391 437.892 433.49 434 428.695 434ZM428.695 439.568C430.413 439.568 431.81 440.962 431.81 442.676C431.81 444.389 430.413 445.784 428.695 445.784C426.978 445.784 425.58 444.389 425.58 442.676C425.58 440.962 426.978 439.568 428.695 439.568Z" fill="black"/>
</svg>
