<svg width="1000" height="684" viewBox="0 0 1000 684" fill="none" xmlns="http://www.w3.org/2000/svg">
<path d="M452.334 388.048C448.09 385.816 442.826 387.445 440.599 391.679C438.455 395.754 440.43 408.948 440.515 409.508L440.594 410.031C440.603 410.092 440.641 410.145 440.696 410.174C440.751 410.203 440.816 410.204 440.872 410.177L441.347 409.946C441.857 409.699 453.847 403.85 455.991 399.775C458.218 395.541 456.577 390.28 452.334 388.048ZM449.741 392.976C451.262 393.776 451.849 395.66 451.052 397.177C450.254 398.693 448.368 399.277 446.848 398.477C445.328 397.678 444.741 395.793 445.538 394.276C446.336 392.76 448.222 392.177 449.741 392.976Z" fill="black"/>
</svg>
