<svg width="1000" height="684" viewBox="0 0 1000 684" fill="none" xmlns="http://www.w3.org/2000/svg">
<path d="M428.695 392C423.901 392 420 395.892 420 400.676C420 405.281 427.889 416.039 428.225 416.495L428.539 416.921C428.575 416.971 428.634 417 428.695 417C428.758 417 428.816 416.971 428.853 416.921L429.166 416.495C429.502 416.039 437.391 405.281 437.391 400.676C437.391 395.892 433.49 392 428.695 392ZM428.695 397.568C430.413 397.568 431.81 398.962 431.81 400.676C431.81 402.389 430.413 403.784 428.695 403.784C426.978 403.784 425.58 402.389 425.58 400.676C425.58 398.962 426.978 397.568 428.695 397.568Z" fill="black"/>
</svg>
