<svg width="1000" height="684" viewBox="0 0 1000 684" fill="none" xmlns="http://www.w3.org/2000/svg">
<path d="M319.125 507.897C316.205 504.094 310.742 503.37 306.947 506.284C303.295 509.088 299.567 521.898 299.41 522.442L299.263 522.95C299.246 523.009 299.258 523.073 299.295 523.122C299.333 523.172 299.392 523.2 299.454 523.199L299.983 523.188C300.549 523.177 313.887 522.882 317.539 520.078C321.333 517.165 322.045 511.7 319.125 507.897ZM314.708 511.288C315.754 512.651 315.499 514.607 314.14 515.651C312.781 516.694 310.824 516.436 309.778 515.073C308.732 513.711 308.987 511.753 310.346 510.71C311.705 509.666 313.662 509.926 314.708 511.288Z" fill="black"/>
</svg>
